<?xml version="1.0" encoding="UTF-8" standalone="no" ?>
<!DOCTYPE svg PUBLIC "-//W3C//DTD SVG 1.1//EN" "http://www.w3.org/Graphics/SVG/1.1/DTD/svg11.dtd">
<svg xmlns="http://www.w3.org/2000/svg" xmlns:xlink="http://www.w3.org/1999/xlink" version="1.1" width="1080" height="1080" viewBox="0 0 1080 1080" xml:space="preserve">
<desc>Created with Fabric.js 5.2.4</desc>
<defs>
</defs>
<rect x="0" y="0" width="100%" height="100%" fill="transparent"></rect>
<g transform="matrix(1 0 0 1 540 540)" id="082566e5-a64f-4699-a410-62e97506f5c1"  >
<rect style="stroke: none; stroke-width: 1; stroke-dasharray: none; stroke-linecap: butt; stroke-dashoffset: 0; stroke-linejoin: miter; stroke-miterlimit: 4; fill: rgb(255,255,255); fill-rule: nonzero; opacity: 1; visibility: hidden;" vector-effect="non-scaling-stroke"  x="-540" y="-540" rx="0" ry="0" width="1080" height="1080" />
</g>
<g transform="matrix(1 0 0 1 540 540)" id="a9961645-1b2a-4c2a-ad64-494e6d399d83"  >
</g>
<g transform="matrix(14.29 0 0 14.29 539.7 539.91)"  >
<polygon style="stroke: none; stroke-width: 1; stroke-dasharray: none; stroke-linecap: butt; stroke-dashoffset: 0; stroke-linejoin: miter; stroke-miterlimit: 4; fill: rgb(0,0,0); fill-rule: nonzero; opacity: 1;" vector-effect="non-scaling-stroke"  points="21.17,-2.55 16.07,-2.55 17.86,-11.34 -25.5,-11.34 -30.05,11.34 -12.76,11.34 -11.63,5.67 -21.84,5.67 -21.22,2.55 -11.02,2.55 -9.99,-2.55 -20.2,-2.55 -19.58,-5.67 -3.4,-5.67 -6.81,11.34 0.27,11.34 3.69,-5.67 9.64,-5.67 6.22,11.34 13.31,11.34 15.06,2.55 20.16,2.55 18.41,11.34 25.5,11.34 30.05,-11.34 22.97,-11.34 " />
</g>
</svg>