<svg id="Layer_1" data-name="Layer 1" xmlns="http://www.w3.org/2000/svg" viewBox="0 0 587 586.9"><defs><style>.cls-1{fill:#a40007;}</style></defs><title>ShanghaiTech_red</title><g id="g3"><path id="path5" class="cls-1" d="M301.78,6.74C140.07,6,7.87,137.19,7.14,299S137.59,593,299.4,593.64s294-130.44,294.74-292.26S463.7,7.47,301.78,6.74M299.4,584.22C142.76,583.6,15.94,455.64,16.56,299S145.14,15.54,301.78,16.16,585.24,144.74,584.62,301.38,456,584.84,299.4,584.22" transform="translate(-7.14 -6.74)"/><polygon id="polygon7" class="cls-1" points="517.22 303.34 529.96 312.14 515.98 319.07 515.36 327.05 535.96 316.28 550.14 317.42 550.66 310.58 536.48 309.44 517.85 295.47 517.22 303.34"/><polygon id="polygon9" class="cls-1" points="516.71 346.82 544.24 353.03 545.8 346.3 518.26 340.19 520.43 330.36 514.84 329.12 508.94 355.41 514.53 356.65 516.71 346.82"/><polygon id="polygon11" class="cls-1" points="504.9 366.8 537.1 377.46 539.27 371.04 507.08 360.28 504.9 366.8"/><path id="path13" class="cls-1" d="M531.92,390a9.94,9.94,0,0,0-5.49-1,9.81,9.81,0,0,0-4.66,2,32.83,32.83,0,0,0-5.28,5.69c-2.07,2.69-3.62,4.35-4.66,4.76a2.54,2.54,0,0,1-2.28.1,2.45,2.45,0,0,1-1.45-1.86,7.55,7.55,0,0,1,.83-4.76,7.78,7.78,0,0,1,2.8-3.52,5.86,5.86,0,0,1,4.24-.1l2.59-6.32a9.43,9.43,0,0,0-8.18,0c-2.59,1.24-4.76,3.73-6.52,7.56a16.83,16.83,0,0,0-1.66,6.52,9.16,9.16,0,0,0,1.35,5.28,8.47,8.47,0,0,0,3.83,3.31,8.56,8.56,0,0,0,7.45,0c1.86-.83,3.93-2.69,6.32-5.69,1.86-2.28,3-3.73,3.62-4.35a5.25,5.25,0,0,1,2.38-1.66,3.18,3.18,0,0,1,2.17.21,4.16,4.16,0,0,1,2.28,2.9,7.23,7.23,0,0,1-.83,5.07,7.16,7.16,0,0,1-3.52,3.83,8.09,8.09,0,0,1-5.49.21l-2.17,6.32c3.62,1.14,6.83,1.14,9.63-.21s5.07-3.83,6.83-7.76a19.57,19.57,0,0,0,2-7.25,9,9,0,0,0-1.55-5.69,15,15,0,0,0-4.56-3.52" transform="translate(-7.14 -6.74)"/><path id="path15" class="cls-1" d="M511.22,426.65a12.24,12.24,0,0,0-4.35,1.55c1.24-2.69,1.66-5.18,1-7.35a9.21,9.21,0,0,0-4-5.28,9.1,9.1,0,0,0-5.28-1.66,7.81,7.81,0,0,0-4.87,1.55c-1.45,1-3.11,3.11-5.07,6.11l-7.87,12.11,28.37,18.53,3.73-5.69L501,438.76l.72-1.14a10.86,10.86,0,0,1,2.17-2.69,4.12,4.12,0,0,1,2.28-.93,36.62,36.62,0,0,1,6.11-.31l8.9-.1,4.45-6.83-7.76-.21a32.2,32.2,0,0,0-6.63.1m-9-.62a29,29,0,0,1-3,5.38l-2.8,4.24-7.25-4.76,2.9-4.45c1.55-2.28,2.48-3.73,2.8-4.14a3.91,3.91,0,0,1,2.48-1.45,4.09,4.09,0,0,1,2.8.72,4.52,4.52,0,0,1,1.76,2,3,3,0,0,1,.31,2.48" transform="translate(-7.14 -6.74)"/><polygon id="polygon17" class="cls-1" points="466.39 455.31 460.8 450.35 473.02 436.68 468.77 432.85 452 451.59 477.26 474.26 494.45 455 490.2 451.17 477.57 465.36 470.74 459.14 482.02 446.51 477.78 442.68 466.39 455.31"/><polygon id="polygon19" class="cls-1" points="443.31 459.56 453.04 484.2 430.37 470.43 424.67 475.19 455.73 493.41 461.32 488.75 448.9 454.9 443.31 459.56"/><rect id="rect21" class="cls-1" x="431.12" y="482.93" width="6.83" height="33.96" transform="translate(-211.9 319.85) rotate(-33.83)"/><polygon id="polygon23" class="cls-1" points="423.95 515.88 408.31 485.75 402.62 488.65 413.08 508.73 390.3 495.07 384.4 498.18 400.03 528.3 405.73 525.3 395.48 505.63 417.84 518.98 423.95 515.88"/><path id="path25" class="cls-1" d="M383.88,508.12l-6.52,2.17,5.9,17.81a51.16,51.16,0,0,1,1.55,5.59,4.77,4.77,0,0,1-.72,3.31,7.27,7.27,0,0,1-3.83,2.48,6.66,6.66,0,0,1-4.66.21,5.09,5.09,0,0,1-3-2.48,36.12,36.12,0,0,1-2.07-5.28l-5.8-17.39-6.52,2.17,5.69,17.19a46.35,46.35,0,0,0,3.31,8,10.37,10.37,0,0,0,3,3,11.29,11.29,0,0,0,4.66,1.55,18,18,0,0,0,7.35-1.24,17.34,17.34,0,0,0,5.9-3,9.92,9.92,0,0,0,2.9-3.83,8.84,8.84,0,0,0,.62-4.66,52.59,52.59,0,0,0-2.17-8.39l-5.59-17.19Z" transform="translate(-7.14 -6.74)"/><polygon id="polygon27" class="cls-1" points="301.89 517.22 305.3 551.08 312.03 550.35 310.58 535.55 323.94 534.31 325.39 549.01 332.22 548.38 328.91 514.64 322.07 515.26 323.42 528.61 310.07 529.85 308.72 516.6 301.89 517.22"/><path id="path29" class="cls-1" d="M281.49,531a7.71,7.71,0,0,1,6.32-2.38,7.47,7.47,0,0,1,4.56,1.76,7.12,7.12,0,0,1,2.28,4.35l6.83-1.24a13.33,13.33,0,0,0-3.11-6.42,14,14,0,0,0-9.84-4.24,14.81,14.81,0,0,0-11.8,4c-3.11,2.9-4.76,7.25-5.18,12.84-.31,5.38.93,9.63,3.62,12.84A14.86,14.86,0,0,0,286,557.82a14.26,14.26,0,0,0,9.11-2.17,15.06,15.06,0,0,0,5.59-8l-6.52-2.48a10,10,0,0,1-3.11,5.28,7.54,7.54,0,0,1-10.56-1.66c-1.45-1.86-2.07-5-1.76-9.32,0-3.93,1-6.73,2.69-8.49" transform="translate(-7.14 -6.74)"/><polygon id="polygon31" class="cls-1" points="237.29 529.54 253.96 533.06 255.09 527.47 238.43 523.95 239.98 516.6 257.89 520.43 259.13 514.74 234.49 509.56 227.45 542.69 252.71 548.08 253.85 542.48 235.32 538.55 237.29 529.54"/><polygon id="polygon33" class="cls-1" points="207.99 536.48 217.72 509.98 227.14 513.5 229.11 508.11 203.74 498.8 201.78 504.18 211.2 507.7 201.57 534.2 207.99 536.48"/><polygon id="polygon35" class="cls-1" points="178.07 523.85 184.28 526.85 198.98 496.31 192.87 493.31 178.07 523.85"/><path id="path37" class="cls-1" d="M148.66,509l6.11,3.93,6.52-5.07,11.49,7.25-1.55,8.08,6.32,3.93,6.63-35.92-6.11-3.83L148.66,509Zm25.26.1-7.87-5,10.56-8.18-2.69,13.15Z" transform="translate(-7.14 -6.74)"/><polygon id="polygon39" class="cls-1" points="135.62 452.73 113.26 478.19 118.44 482.75 128.17 471.57 138.31 480.37 128.58 491.55 133.66 496.1 156.02 470.53 150.84 465.98 142.04 476.12 132 467.22 140.8 457.18 135.62 452.73"/><path id="path41" class="cls-1" d="M115.95,452.74l-4.45,3.62,5,6-3.31,2.69a17.21,17.21,0,0,1-3.93-1.55,11.25,11.25,0,0,1-3.42-2.8,8.94,8.94,0,0,1-2.17-7.35c.41-2.69,2.17-5.28,5.28-7.87,2.9-2.38,5.59-3.52,8.18-3.31a9.16,9.16,0,0,1,6.73,3.73,8.46,8.46,0,0,1,2.07,4.76,6.59,6.59,0,0,1-1.35,4.56l5.28,4.45a12.28,12.28,0,0,0,2.8-8.18c-.1-3-1.55-6-4.24-9.32a17.35,17.35,0,0,0-6.52-5.18,15.79,15.79,0,0,0-9-1,21.14,21.14,0,0,0-14.39,11.49,14,14,0,0,0-1.14,8.7,19.43,19.43,0,0,0,4.14,8.59,22.15,22.15,0,0,0,6.52,5.38,18.43,18.43,0,0,0,6.83,2.48L125.27,464l-9.32-11.28Z" transform="translate(-7.14 -6.74)"/><polygon id="polygon43" class="cls-1" points="76.82 433.88 106.12 416.8 102.91 411.32 83.34 422.7 95.97 399.31 92.66 393.51 63.26 410.59 66.47 416.08 85.62 405 73.4 427.98 76.82 433.88"/><path id="path45" class="cls-1" d="M90,376.65l-36.44-.1,2.59,6.73,8.18-.1,4.87,12.63L63,401.28l2.69,6.94,26.81-24.85Zm-16.15,15-3.31-8.59,13.35-.31-10,8.9Z" transform="translate(-7.14 -6.74)"/><polygon id="polygon47" class="cls-1" points="71.33 326.42 38.1 333.46 39.55 340.19 54.04 337.09 56.84 350.24 42.35 353.24 43.8 359.97 77.03 352.93 75.58 346.2 62.53 348.99 59.74 335.84 72.78 333.05 71.33 326.42"/><path id="path49" class="cls-1" d="M48,326.43a10.64,10.64,0,0,0,5.59,1.35,10,10,0,0,0,5.28-1.66,9.18,9.18,0,0,0,3.21-3.93,30.91,30.91,0,0,0,2-7.56c.62-3.31,1.24-5.49,1.86-6.42a2.49,2.49,0,0,1,2-1.14,2.63,2.63,0,0,1,2.17.93,7.24,7.24,0,0,1,1.45,4.56A7,7,0,0,1,70.6,317,5.94,5.94,0,0,1,67,319.08l.72,6.83A9.9,9.9,0,0,0,75,322.09c1.76-2.28,2.48-5.49,2.28-9.73a15.63,15.63,0,0,0-1.55-6.63,9.84,9.84,0,0,0-3.62-4,8.41,8.41,0,0,0-5-1.14,9,9,0,0,0-6.63,3.52c-1.24,1.55-2.17,4.24-2.9,7.87-.52,2.9-.93,4.76-1.14,5.59a5.47,5.47,0,0,1-1.35,2.59,2.83,2.83,0,0,1-2,.83,4,4,0,0,1-3.31-1.45c-1-1-1.55-2.69-1.66-4.87a7.91,7.91,0,0,1,1.24-5.07,8.19,8.19,0,0,1,4.76-2.69l-1-6.63a12.54,12.54,0,0,0-8.39,4.66c-1.86,2.38-2.69,5.8-2.38,10A20.81,20.81,0,0,0,44,322.29a11.05,11.05,0,0,0,4,4.14" transform="translate(-7.14 -6.74)"/><polygon id="polygon51" class="cls-1" points="209.65 357.9 214.41 357.9 214.51 326.73 209.75 326.63 209.65 357.9"/><rect id="rect53" class="cls-1" x="211.99" y="339.62" width="34.79" height="4.76" transform="translate(-120.65 563.33) rotate(-89.78)"/><rect id="rect55" class="cls-1" x="231.01" y="329.24" width="37.48" height="4.76" transform="translate(-89.98 573.35) rotate(-89.78)"/><rect id="rect57" class="cls-1" x="221.45" y="334.18" width="36.23" height="4.76" transform="translate(-105.21 567.88) rotate(-89.74)"/><rect id="rect59" class="cls-1" x="240.48" y="325.84" width="38.72" height="4.76" transform="translate(-76.51 580.06) rotate(-89.78)"/><rect id="rect61" class="cls-1" x="250.48" y="322.87" width="39.24" height="4.76" transform="translate(-63.32 587.35) rotate(-89.78)"/><rect id="rect63" class="cls-1" x="195" y="354.67" width="28.06" height="4.76" transform="translate(-155.96 557.96) rotate(-89.78)"/><rect id="rect65" class="cls-1" x="188.02" y="365.02" width="21.64" height="4.76" transform="translate(-176.59 557.85) rotate(-89.74)"/><rect id="rect67" class="cls-1" x="180.84" y="376.18" width="15.63" height="4.76" transform="translate(-197.85 558.87) rotate(-89.76)"/><rect id="rect69" class="cls-1" x="173.02" y="385.14" width="10.87" height="4.76" transform="translate(-216.93 557.65) rotate(-89.77)"/><rect id="rect71" class="cls-1" x="164.27" y="392.01" width="7.97" height="4.76" transform="translate(-234.03 554.13) rotate(-89.74)"/><rect id="rect73" class="cls-1" x="155.16" y="398.16" width="5.8" height="4.76" transform="translate(-250.33 550.06) rotate(-89.74)"/><polygon id="polygon75" class="cls-1" points="376.84 327.36 372.18 327.36 371.98 358.52 376.74 358.52 376.84 327.36"/><rect id="rect77" class="cls-1" x="354.06" y="340.28" width="34.79" height="4.76" transform="translate(20.22 706.05) rotate(-89.78)"/><polygon id="polygon79" class="cls-1" points="341.64 344.13 346.4 344.13 346.51 306.65 341.75 306.65 341.64 344.13"/><rect id="rect81" class="cls-1" x="343.19" y="334.82" width="36.23" height="4.76" transform="translate(15.5 690.4) rotate(-89.77)"/><rect id="rect83" class="cls-1" x="321.76" y="326.13" width="38.72" height="4.76" transform="translate(3.95 661.41) rotate(-89.74)"/><rect id="rect85" class="cls-1" x="311.36" y="323.18" width="39.24" height="4.76" transform="translate(-3.21 648.32) rotate(-89.74)"/><rect id="rect87" class="cls-1" x="377.72" y="355.48" width="28.06" height="4.76" transform="translate(25 741.26) rotate(-89.74)"/><rect id="rect89" class="cls-1" x="390.98" y="365.9" width="21.64" height="4.76" transform="translate(24.83 761.91) rotate(-89.78)"/><rect id="rect91" class="cls-1" x="404.04" y="377.13" width="15.63" height="4.76" transform="translate(23.53 783.07) rotate(-89.77)"/><rect id="rect93" class="cls-1" x="416.52" y="386.14" width="10.87" height="4.76" transform="translate(24.67 802.24) rotate(-89.78)"/><rect id="rect95" class="cls-1" x="428.13" y="393.19" width="7.97" height="4.76" transform="translate(27.75 819.43) rotate(-89.78)"/><rect id="rect97" class="cls-1" x="439.37" y="399.32" width="5.8" height="4.76" transform="translate(31.64 835.6) rotate(-89.77)"/><path id="path99" class="cls-1" d="M268.44,459.16a25.75,25.75,0,0,0,3.42-3.42,15.82,15.82,0,0,0,2.07-3.42,9.94,9.94,0,0,0,.62-3.42,7,7,0,0,0-2.28-5.38,8.83,8.83,0,0,0-6.32-2.17,10,10,0,0,0-6.11,1.86c-1.66,1.24-2.59,3.31-2.9,6.11l5.18.52a5.11,5.11,0,0,1,1.14-3.21,4.06,4.06,0,0,1,5.18,0,3.54,3.54,0,0,1,.93,2.69,6.05,6.05,0,0,1-1.14,3.21,35.8,35.8,0,0,1-4.24,4.35,40.9,40.9,0,0,0-5.9,6.42,11.87,11.87,0,0,0-1.76,5.18l18.12.1v-4.76H264.2a12.56,12.56,0,0,1,1-1.45,29.66,29.66,0,0,1,3.21-3.21" transform="translate(-7.14 -6.74)"/><path id="path101" class="cls-1" d="M290.81,441.35A7.55,7.55,0,0,0,284.7,444c-1.76,2.28-2.69,5.9-2.69,11s.72,8.8,2.38,10.87a7.48,7.48,0,0,0,6.32,3,7.55,7.55,0,0,0,6.11-2.69c1.76-2.28,2.69-5.9,2.69-11s-.83-8.8-2.59-11a7.15,7.15,0,0,0-6.11-2.9M293.5,462a4.27,4.27,0,0,1-1.14,2.17,2.52,2.52,0,0,1-3.31,0,5.56,5.56,0,0,1-1.24-2.38,31.22,31.22,0,0,1-.41-6.52,33,33,0,0,1,.52-6.73,4.27,4.27,0,0,1,1.14-2.17,2.52,2.52,0,0,1,3.31,0,4.63,4.63,0,0,1,1.24,2.38,30.58,30.58,0,0,1,.41,6.52,33,33,0,0,1-.52,6.73" transform="translate(-7.14 -6.74)"/><path id="path103" class="cls-1" d="M310.37,445.8a13.94,13.94,0,0,1-4.45,2.48v4.66a17.52,17.52,0,0,0,6.73-3.93l-.1,19.46h5.18l.1-27.12h-4.24a9,9,0,0,1-3.21,4.45" transform="translate(-7.14 -6.74)"/><path id="path105" class="cls-1" d="M338.33,454.19c2.59-1.45,3.93-3.31,3.93-5.69A6.19,6.19,0,0,0,340.4,444a7.88,7.88,0,0,0-6.11-2.48,10.42,10.42,0,0,0-4,.83,6.8,6.8,0,0,0-2.8,2.28,11.55,11.55,0,0,0-1.55,3.93l4.76.83a4.3,4.3,0,0,1,1.14-2.69,3,3,0,0,1,2.28-.93,2.84,2.84,0,0,1,3,3,3.53,3.53,0,0,1-1.14,2.59,4.75,4.75,0,0,1-3.21.93l-.62,4.24a12.8,12.8,0,0,1,2.38-.41,3.53,3.53,0,0,1,2.59,1.14,4.18,4.18,0,0,1,1,3.11,4.94,4.94,0,0,1-1.14,3.31,3.09,3.09,0,0,1-2.69,1.14,3.43,3.43,0,0,1-2.59-1,4.41,4.41,0,0,1-1.24-2.9l-5,.62a7.69,7.69,0,0,0,2.8,5.49,9.74,9.74,0,0,0,12.63-.31,8.06,8.06,0,0,0,2.59-6.11,6.23,6.23,0,0,0-1.35-4.14,6.41,6.41,0,0,0-3.83-2.28" transform="translate(-7.14 -6.74)"/><path id="path107" class="cls-1" d="M343.4,424.68h-6.32V422.2h-6.32v-2.59l-13.46-.1,5.28-28.06a1.47,1.47,0,0,0,.21-.62,1.5,1.5,0,0,0-.21-.72l-6.21-28.16h0v-.21L319.69,343h3.52l.21-39.55h-4.76l-.1,15.11-2.9-14.39V304c0-.1-.1-.1-.1-.21L320,275.4c0-.1.1-.21.1-.31s-.1-.21-.1-.31v-.1c0-.1,0-.21-.1-.21l-5.18-28.57h0l3.93-28.06a1.31,1.31,0,0,0,.1-.62,1.11,1.11,0,0,0-.21-.62l-4.76-28.16v-.21l3.62-28.68.1-1.55-13.67-.1-1.14-28.26H300l-1.45,28.26-13.67-.1L288.43,188l-5.07,28.88v.41l3.73,28.57-5.49,28.78v.72l4.24,28.68-3.11,14.49.1-15.11h-4.76L277.87,343h3.42l3.11,18.84v.1l-6.52,28.57v.62L283,419.61l-13.46-.1v2.59h-6.32v2.48H257v2.8l86.65.41-.21-3.11Zm-43-88.52,12.22,24.33-24.54-.1,12.32-24.23Zm.21-57.66,11.18,24.12-22.47-.1,11.28-24Zm9.63-91.72-18.32-.1,9.21-23.6,9.11,23.71ZM301,220.84l10.15,23.91-20.5-.1Zm-.72,173L314,419.61l-27.85-.1Zm2.28-4.45,4.14-8.08,7.76-15.22,5.07,23.29Zm.21-57.87,10.87-23,4.66,23.09-15.53-.1Zm.1-57.87,2.28-5.28L312.65,251l4.14,22.78Zm.21-57.87,8.7-22.26,3.83,22.26ZM290.29,193.4,296,208.31l2.9,7.45-12.53-.1,3.93-22.26Zm-1.45,57.46,2.9,6.94,6.73,15.84-14-.1Zm-1.24,57.56,10.66,23.09-15.53-.1,4.87-23Zm-1.35,57.66,11.6,23.29-16.87-.1,5.28-23.19Z" transform="translate(-7.14 -6.74)"/><path id="path109" class="cls-1" d="M370.42,489.49a19.51,19.51,0,0,0,7.14-1.24C384,485.56,388,479,391.85,472.41c2.59.21,5.07.41,7.56.41,5.8,0,10-1,13.35-3.21,5.8-3.83,8.49-11,10.87-18.32,7.56-.83,15.11-2,20.08-6.83s6.11-12.42,7-20.08c7.25-2.28,14.49-4.87,18.32-10.66s3.62-13.35,3-20.91c6.73-3.73,13.35-7.66,16-14.08s.83-13.77-1.24-21.12c5.9-4.87,11.49-10,12.84-16.87s-1.76-13.67-5.28-20.39c4.76-6,9.32-12.22,9.32-19.26s-4.35-13.15-9.11-19.15c3.52-6.73,6.63-13.56,5.28-20.39s-6.83-12.11-12.73-17.08c2.17-7.35,4-14.8,1.35-21.12s-9.21-10.46-15.94-14.18c.62-7.56,1-15.22-2.8-20.91s-11-8.49-18.22-10.87c-.83-7.56-2-15.11-6.83-20.08s-12.42-6.11-20.08-7c-2.28-7.25-4.87-14.49-10.66-18.32-3.31-2.28-7.66-3.31-13.46-3.31-2.38,0-4.87.21-7.35.31-3.62-6.73-7.66-13.25-14.08-16a17.58,17.58,0,0,0-7.14-1.35c-4.45,0-9.32,1.24-14.08,2.59-4.87-5.9-10.15-11.49-16.87-12.94a16.07,16.07,0,0,0-3.21-.31c-5.69,0-11.49,2.69-17.19,5.59-6-4.76-12.22-9.32-19.15-9.32s-13.25,4.35-19.15,9.11c-5.59-2.9-11.39-5.59-17.08-5.59a19.06,19.06,0,0,0-3.42.31c-6.83,1.35-12.11,6.83-17.08,12.73-4.66-1.35-9.42-2.69-14-2.69a19.51,19.51,0,0,0-7.14,1.24c-6.42,2.69-10.56,9.21-14.29,15.94-2.59-.21-5.07-.41-7.56-.41-5.8,0-10,1-13.35,3.21-5.8,3.83-8.49,11-10.87,18.22-7.56.83-15.11,2-20.08,6.83s-6.11,12.42-7,20.08c-7.25,2.28-14.49,5-18.32,10.66s-3.62,13.35-3,20.91c-6.73,3.62-13.25,7.66-15.94,14.08s-.83,13.87,1.24,21.22c-5.9,4.87-11.49,10-12.94,16.87s1.76,13.67,5.28,20.39c-4.76,6-9.32,12.22-9.32,19.15s4.35,13.25,9.11,19.15c-3.52,6.73-6.63,13.67-5.28,20.5s6.83,12.11,12.73,17.08c-2.17,7.35-3.93,14.7-1.35,21.12s9.21,10.56,15.94,14.18c-.72,7.56-1,15.22,2.8,20.91s11,8.49,18.32,10.87c.83,7.56,2,15.11,6.83,20.08s12.42,6.11,20.08,7c2.28,7.25,4.87,14.49,10.66,18.32,3.31,2.28,7.66,3.31,13.56,3.31,2.38,0,4.87-.21,7.35-.41,3.62,6.73,7.66,13.25,14.08,15.94a17.58,17.58,0,0,0,7.14,1.35c4.45,0,9.32-1.24,14-2.59,4.87,5.9,10.15,11.49,16.87,12.94a16.85,16.85,0,0,0,3.21.31c5.69,0,11.49-2.69,17.19-5.59,6,4.76,12.22,9.32,19.15,9.32S313,498.91,319,494.15c5.59,2.9,11.39,5.59,17.08,5.59a19.06,19.06,0,0,0,3.42-.31c6.94-1.35,12.11-6.94,17.08-12.73,4.66,1.55,9.42,2.8,13.87,2.8m-31-11.08a25.91,25.91,0,0,0-4.14.31c-6,1.14-11.6,5.59-17,9.84-6.11-3.21-12.42-6.52-18.53-6.52s-12.53,3.11-18.74,6.32c-5.28-4.35-10.77-8.7-16.77-9.94a17.56,17.56,0,0,0-4.14-.41c-5,0-10.15,1.45-15.32,2.9-4.35-5.28-8.9-10.66-14.6-13a26.72,26.72,0,0,0-10.66-1.76,89.26,89.26,0,0,0-9,.52c-3.21-6-6.63-12.11-11.7-15.63s-12.11-4.35-18.84-5.07c-2.07-6.52-4.24-13.25-8.59-17.6s-11-6.52-17.6-8.59c-.72-6.83-1.55-13.87-5-19s-9.42-8.59-15.43-11.91c.62-6.83,1.14-13.87-1.14-19.67s-7.66-10.25-12.94-14.7c2-6.63,3.83-13.35,2.69-19.46s-5.59-11.6-9.84-17c3.21-6.11,6.52-12.42,6.52-18.53s-3.11-12.53-6.32-18.74c4.35-5.28,8.7-10.77,9.94-16.77s-.62-12.84-2.48-19.46c5.28-4.35,10.66-8.9,13-14.6s1.86-12.73,1.35-19.67c6-3.21,12.11-6.63,15.63-11.7s4.35-12,5.18-18.84c6.63-2.07,13.25-4.24,17.7-8.59s6.52-11,8.59-17.6c6.83-.72,13.87-1.55,18.95-5s8.59-9.42,11.91-15.43a83.6,83.6,0,0,0,8.8.52,26.93,26.93,0,0,0,10.77-1.76c5.69-2.28,10.25-7.66,14.7-12.94,5.18,1.55,10.46,3,15.32,3a17.56,17.56,0,0,0,4.14-.41c6-1.14,11.6-5.59,17-9.84,6.11,3.21,12.42,6.52,18.53,6.52S314,115,320.21,111.82c5.28,4.35,10.77,8.7,16.77,9.94a25.49,25.49,0,0,0,4.14.41c5,0,10.15-1.45,15.32-2.9,4.35,5.28,8.9,10.66,14.6,13a26.72,26.72,0,0,0,10.66,1.76,89.25,89.25,0,0,0,9-.52c3.21,6,6.63,12.11,11.8,15.53s12,4.35,18.84,5.07c2.07,6.63,4.24,13.25,8.59,17.7s11,6.52,17.6,8.59c.72,6.83,1.55,13.87,5,18.95s9.42,8.59,15.43,11.91c-.62,6.83-1.14,13.87,1.14,19.67s7.66,10.25,12.94,14.7c-2,6.63-3.83,13.35-2.69,19.46s5.59,11.6,9.84,17c-3.21,6.11-6.52,12.42-6.52,18.63s3.11,12.53,6.32,18.74c-4.35,5.28-8.7,10.77-9.94,16.77s.62,12.84,2.48,19.46c-5.28,4.35-10.66,8.9-13,14.6s-1.86,12.73-1.35,19.67c-6,3.21-12.11,6.63-15.53,11.7s-4.35,12.11-5.07,18.95c-6.63,2.07-13.25,4.24-17.7,8.59s-6.52,11-8.59,17.6c-6.83.72-13.87,1.55-18.95,5s-8.59,9.52-11.91,15.53a85.57,85.57,0,0,0-8.9-.52,26.92,26.92,0,0,0-10.77,1.76c-5.69,2.28-10.25,7.66-14.7,12.94-5.28-1.66-10.56-3.11-15.53-3.11m36.34,5.38a14.3,14.3,0,0,1-5.38.93,42,42,0,0,1-10.66-1.86c3.73-4.35,7.35-8.28,11.49-9.94a24.28,24.28,0,0,1,9-1.35c2.07,0,4.24.21,6.32.31-3,5.38-6.32,10-10.77,11.91m34.37-18.22c-2.48,1.66-5.9,2.38-10.77,2.38-1.66,0-3.31-.1-5.07-.21,2.69-4.87,5.59-9.52,9.32-12s9.21-3.31,14.8-3.93c-2.07,5.9-4.24,11.08-8.28,13.77M440.3,441c-3.42,3.42-9,4.56-15.11,5.28,1.76-5.28,3.62-10.46,6.83-13.67s8.39-5.07,13.77-6.83c-.83,6.32-2.07,11.8-5.49,15.22M465,411.12c-2.69,4-7.87,6.21-13.77,8.08.72-5.59,1.55-11,4.14-14.7s7.14-6.52,12-9.21c.41,6.21.31,11.8-2.38,15.84m18.63-34.27c-1.86,4.56-6.63,7.66-12.11,10.77-.41-5.59-.62-11.18,1.14-15.32s5.8-7.87,10.15-11.49c1.55,6.11,2.59,11.7.83,16m11.39-37.17c-.93,4.76-5,8.8-9.63,12.84-1.45-5.38-2.69-10.77-1.86-15.22s4-8.59,7.56-13c2.8,5.59,4.87,10.77,3.93,15.43m-3-24c-2.59-5.07-4.87-10.15-4.76-14.6s2.28-9.32,5.07-14.49c3.62,4.76,6.73,9.73,6.73,14.6s-3.31,9.63-7,14.49m3.21-53.32c.93,4.76-1.24,10.15-3.93,15.43-3.62-4.56-6.73-8.9-7.56-13.25s.41-9.84,2-15.22c4.56,4,8.59,8.18,9.52,13M484.3,225c1.76,4.45.72,10-.93,15.94-4.45-3.73-8.28-7.35-10-11.49s-1.55-9.73-1-15.32c5.38,3.11,10.15,6.42,12,10.87M466,190.71c2.59,3.93,2.69,9.63,2.17,15.84-4.87-2.69-9.52-5.59-12-9.32s-3.31-9.21-3.93-14.8c5.9,2,11.18,4.14,13.77,8.28M446.72,175.6c-5.38-1.76-10.56-3.62-13.67-6.83S428,160.38,426.22,155c6.21.83,11.8,2,15.11,5.38,3.52,3.52,4.66,9.11,5.38,15.22m-35.2-39.86c4,2.69,6.21,7.87,8.08,13.77-5.59-.62-11-1.55-14.7-4.14s-6.52-7.14-9.21-12.11c1.66-.1,3.31-.21,4.87-.21,5,.21,8.39.93,11,2.69m-34.16-18.53c4.45,1.86,7.66,6.63,10.77,12-2.17.21-4.45.31-6.52.31a22.91,22.91,0,0,1-8.8-1.45c-4.14-1.76-7.87-5.8-11.39-10a42.83,42.83,0,0,1,10.66-1.86,16.5,16.5,0,0,1,5.28,1m-37.27-11.39c4.76.93,8.8,5,12.84,9.73-5.49,1.55-11,2.69-15.22,1.86s-8.59-4-13-7.66c5.69-2.8,11-4.87,15.43-3.93m-24,3c-5.07,2.59-10.15,4.87-14.7,4.76s-9.32-2.28-14.49-5c4.76-3.62,9.73-6.83,14.6-6.73s9.73,3.11,14.6,6.94m-53.32-3.31c4.56-.93,10,1.24,15.53,3.93-4.56,3.62-8.9,6.73-13.25,7.56-4.14.83-9.73-.41-15.22-2,3.93-4.56,8.08-8.59,12.94-9.52m-37.27,11.08a14.3,14.3,0,0,1,5.38-.93,42,42,0,0,1,10.66,1.86c-3.73,4.35-7.35,8.28-11.49,9.94a24.28,24.28,0,0,1-9,1.35c-2.07,0-4.14-.21-6.32-.31,3-5.38,6.21-10,10.77-11.91m-34.37,18.22c2.48-1.66,5.9-2.48,10.77-2.38,1.66,0,3.31.1,5.07.21-2.69,4.87-5.59,9.52-9.32,12s-9.21,3.31-14.8,3.93c2-5.9,4.14-11.08,8.28-13.77m-30.23,24.54c3.42-3.42,9-4.56,15.11-5.28-1.76,5.38-3.62,10.56-6.83,13.67s-8.39,5.07-13.67,6.73c.83-6.21,2-11.7,5.38-15.11m-24.74,29.92c2.69-4,7.87-6.21,13.77-8.08-.62,5.59-1.55,11-4.14,14.7s-7.14,6.52-12.11,9.21c-.31-6.21-.21-11.8,2.48-15.84m-18.53,34.16c1.86-4.45,6.63-7.66,12-10.77.41,5.59.62,11.18-1.14,15.32s-5.8,7.87-10,11.39c-1.66-5.9-2.69-11.49-.83-15.94m-11.39,37.27c.93-4.76,5-8.8,9.73-12.84,1.55,5.38,2.69,10.77,1.86,15.22s-4,8.59-7.66,13.15c-2.8-5.69-4.87-10.87-3.93-15.53m3,24c2.59,5.07,4.87,10.15,4.76,14.7s-2.28,9.32-5,14.49c-3.62-4.76-6.83-9.73-6.73-14.6s3.11-9.73,6.94-14.6M105.91,338c-.93-4.76,1.24-10.15,3.93-15.53,3.62,4.56,6.73,8.9,7.56,13.25s-.41,9.84-2,15.22c-4.56-3.93-8.59-8.08-9.52-12.94M117,375.4c-1.76-4.45-.72-9.94.93-15.94,4.35,3.73,8.28,7.35,9.94,11.49s1.55,9.73,1,15.32c-5.38-3.21-10-6.42-11.91-10.87m18.22,34.27c-2.59-3.93-2.69-9.63-2.17-15.84,4.87,2.69,9.52,5.59,12,9.32s3.31,9.21,3.93,14.8c-5.9-2-11.08-4.14-13.77-8.28m19.26,15.11c5.28,1.76,10.46,3.73,13.67,6.83s5.07,8.39,6.73,13.67c-6.21-.83-11.7-2-15.11-5.38s-4.56-9-5.28-15.11m35.3,39.86c-4-2.69-6.21-7.87-8.18-13.77,5.59.62,11,1.55,14.7,4.14s6.52,7.14,9.21,12.11c-1.66.1-3.31.21-4.87.21-5-.21-8.39-.93-10.87-2.69m34.16,18.53c-4.45-1.86-7.66-6.63-10.77-12,2.17-.21,4.35-.31,6.42-.31a22.91,22.91,0,0,1,8.8,1.45c4.14,1.76,7.87,5.8,11.39,10-3.83,1-7.35,1.86-10.66,1.76a13.57,13.57,0,0,1-5.18-.93m37.17,11.39c-4.76-.93-8.8-5-12.84-9.73,5.49-1.45,11.08-2.69,15.22-1.86,4.35.83,8.59,4,13,7.66-5.59,2.8-11,4.87-15.43,3.93m24.12-3c5.07-2.59,10-4.76,14.6-4.76s9.32,2.28,14.49,5c-4.76,3.62-9.63,6.73-14.49,6.73s-9.84-3.11-14.6-6.94m53.21,3.31c-4.56.93-10-1.24-15.53-3.93,4.56-3.62,8.9-6.73,13.25-7.56,4.14-.83,9.73.41,15.22,2-3.93,4.56-8.08,8.59-12.94,9.52" transform="translate(-7.14 -6.74)"/><polygon id="polygon111" class="cls-1" points="176 207.88 178.17 206.54 174.45 200.33 171.34 202.19 174.86 207.88 160.16 207.78 160.16 211.3 192.46 211.51 192.46 207.88 176 207.88"/><polygon id="polygon113" class="cls-1" points="194.63 232.73 181.8 232.73 188.11 215.96 184.38 215.86 177.97 232.73 172.69 232.63 172.58 232.42 174.13 231.7 167.72 215.86 163.78 215.86 170.72 232.63 157.57 232.63 157.57 236.15 194.63 236.25 194.63 232.73"/><polygon id="polygon115" class="cls-1" points="156.12 278.49 159.12 280.25 164.51 271.14 161.4 269.38 156.12 278.49"/><polygon id="polygon117" class="cls-1" points="178.17 275.49 181.18 273.73 176.41 265.65 173.41 267.41 178.17 275.49"/><polygon id="polygon119" class="cls-1" points="185.32 270.21 192.87 279.63 195.56 277.45 188.11 268.03 185.32 270.21"/><polygon id="polygon121" class="cls-1" points="174.24 261.31 161.3 261.2 161.3 264.72 190.7 264.82 190.7 261.31 177.76 261.31 177.76 255.72 193.91 255.82 193.91 252.19 177.86 252.19 177.86 245.98 174.34 245.98 174.34 252.19 157.47 252.09 157.47 255.61 174.24 255.72 174.24 261.31"/><path id="path123" class="cls-1" d="M189,286.47H178.89a1.33,1.33,0,0,1-1.14-1.24v-8.59h-3.52V287.3a2.5,2.5,0,0,0,2.48,2.69l14.7.1h.1c2.07-.21,4-4,4.45-4.87L192,283.47c-.52,1.14-1.55,2.69-3,3" transform="translate(-7.14 -6.74)"/><path id="path125" class="cls-1" d="M249.5,286.16v-.1l.1-20.6h11.18v-3.31H249.6v-9.21h-3.52v9.32l-19.57-.1v3.31l18.22.1-.21.21a49.1,49.1,0,0,1-18.22,16v4.35a53.2,53.2,0,0,0,19.36-15.53l.31-.31-.1,13.46c-.31,1.35-1.86,2.07-3.11,2.59l-.31.21,2,4.35c.93-.72,4.87-2.69,5.07-4.76" transform="translate(-7.14 -6.74)"/><path id="path127" class="cls-1" d="M373.42,292.79h3.31l.1-37.06-33.85-.1-.1,37.06h3.31V290.3l27.23.1ZM346.19,287l.1-28.06,27.23.1-.1,28.06Z" transform="translate(-7.14 -6.74)"/><polygon id="polygon129" class="cls-1" points="362.35 263.69 354.48 263.69 354.48 258.92 363.28 259.03 363.28 255.72 342.47 255.61 342.47 258.92 351.17 258.92 351.17 263.69 343.3 263.58 343.3 266.89 351.17 267 351.06 273.42 341.64 273.42 341.64 276.73 363.9 276.83 363.9 273.42 359.55 268.24 356.96 270.31 359.55 273.42 354.48 273.42 354.48 267 362.35 267 362.35 263.69"/><polygon id="polygon131" class="cls-1" points="429.02 208.51 423.74 202.6 421.25 204.78 426.64 210.68 429.02 208.51"/><polygon id="polygon133" class="cls-1" points="416.7 204.57 414.11 202.6 409.35 209.02 411.94 210.99 416.7 204.57"/><polygon id="polygon135" class="cls-1" points="405.42 208.82 401.17 201.98 398.38 203.74 402.52 210.58 405.42 208.82"/><path id="path137" class="cls-1" d="M399.72,231.29l2.07,3.11a29.41,29.41,0,0,0,4.35-3.83l.21-.31-.1,15.94h3.31l.1-14.91,3.52,4.24,2.69-2L412.14,229l3.42-3.31-2.28-2.38-3.11,2.9-.21.1-.1-.1.1-.1a35.94,35.94,0,0,0,3.11-5.38h0l.1-.1a15.24,15.24,0,0,0,1.14-3.21l-13.56-.1v3.31H409l-.1.21a35,35,0,0,1-9.21,10.46" transform="translate(-7.14 -6.74)"/><path id="path139" class="cls-1" d="M414.42,230.26l2.38,2.9c.21-.21.93-.62,1.86-1.45l.21-.21-.1,14.8h3.31v-2h7.76v2h3.31l.1-15.53.21.21c.83.62,1.76,1.24,2.59,1.76l2.28-3a27.7,27.7,0,0,1-10.66-12s.31-.83.41-1.14l-3.93-.1c-3.31,8.9-8.7,13-9.73,13.77M429.84,241h-7.76v-8.08h7.76Zm-8.8-11.7a29.8,29.8,0,0,0,4.56-6.94l.1-.21.1.21a31,31,0,0,0,5.59,6.94l.31.31h-11l.31-.31Z" transform="translate(-7.14 -6.74)"/><path id="path141" class="cls-1" d="M348.37,228.19l-6.63,2.38v3.62l6.73-2.48v7.66h0q-.31,1.71-3.11,3.11l1.76,3.83c.83-.41,4.66-2.38,4.76-4.35v-.1l.1-11.39,4.45-1.55v-3.62l-4.56,1.66v-6.11h4.56v-3.31h-4.56v-9.21h-3.31v9.21h-6.83v3.31h6.83l-.21,7.35Z" transform="translate(-7.14 -6.74)"/><path id="path143" class="cls-1" d="M361.52,226.63l.1-.21h.31v.1a33.57,33.57,0,0,0,4.87,9.94l.1.1-.1.1c-1.55,1.66-3,3-4,4l-.21.1v4.87a35.65,35.65,0,0,0,6.83-5.8l.1-.1.1.1a28.42,28.42,0,0,0,8.49,6.21l.1-4.24a23,23,0,0,1-6.32-4.87l-.1-.1.1-.1a28,28,0,0,0,4.56-9.94l.1-.31h0a27.67,27.67,0,0,0,.62-3.31h-2.28l-13.25-.1v-9.42h10.56v1.86h0q-.31,1.71-3.11,3.11l1.76,3.73c.83-.31,4.56-2.28,4.76-4.24v-7.76l-17.19-.1-.31,35.61h3.31l.1-19.26Zm11.08-.1-.1.21a21.77,21.77,0,0,1-3.21,6.63l-.1.21-.1-.21a32,32,0,0,1-3.31-6.73l-.1-.21,6.94.1Z" transform="translate(-7.14 -6.74)"/><path id="path145" class="cls-1" d="M430.57,287.51a4.88,4.88,0,0,1-2.17-1.14l-.21-.21c-2.38-2-4.24-5.07-5.49-9.42l-.1-.21h10.35v-3.31H421.87v-.1a37.18,37.18,0,0,1-.52-4.87V268h11.7l.1-11.6-28.88-.1-.1,31h0v.1c.1,2,3.93,3.93,4.66,4.35l1.66-3.62c-1.24-.52-3.11-1.76-3.11-3.42v-8.28h11.28v.1c1.55,6,4,10.46,7.66,12.94l.1.1a10.41,10.41,0,0,0,4.66,1.86c3.73,0,4.35-5.07,4.45-6.11H431.6c-.1,1-.21,2.17-1,2.17m-23.19-14.39V268h10.15v.1a37.81,37.81,0,0,0,.52,4.76v.21H407.38Zm0-8.39v-5l22.26.1v5Z" transform="translate(-7.14 -6.74)"/><path id="path147" class="cls-1" d="M231.49,226.53v-.1h6.42v9.42h.1l-.1.21c-.31.93-1.14,1.66-4.35,2.17l.41,3.21c3.31-.52,6.63-1.45,7.14-5.38l.1-.1v-.83h0v-12h-9.73V218l13.35.1v.1a65,65,0,0,0,3,15.11,36.93,36.93,0,0,1-6.11,6v4.76a39.13,39.13,0,0,0,7.76-6.83l.1-.21.1.21c1.66,3,4.66,7.25,8.49,7.35a14,14,0,0,0,2.07-.21v-4c-1.45.41-4.66.93-8.08-6.52a62.31,62.31,0,0,0,6.11-10.66l-4-.1a59.62,59.62,0,0,1-3.42,6.21l-.21.31-.1-.31a63.17,63.17,0,0,1-2-11v-.1h10.77v-3.31l-3.93-6.83h-4.14l4,6.83h-6.94v-.1q-.16-3.73,0-6.83h-3.73c-.1,1-.1,3.52,0,6.83v.1l-17-.1V227c0,3.62-.52,12.42-4.76,16l3.93,2.17c.62-1,4.66-6.52,4.66-18.74" transform="translate(-7.14 -6.74)"/><polygon id="polygon149" class="cls-1" points="101.98 184.49 79.72 172.58 90.07 153.33 87.9 152.19 87.79 152.19 82.1 156.43 82.83 161.5 77.55 171.44 58.5 161.19 55.18 167.51 98.66 190.7 87.69 211.2 89.86 212.34 116.68 162.44 114.4 161.19 114.4 161.19 114.4 161.19 114.4 161.19 114.4 161.19 108.71 165.44 109.43 170.62 101.98 184.49"/><polygon id="polygon151" class="cls-1" points="270.73 81.58 267.31 64.5 275.8 62.84 275.38 60.36 266.79 62.02 259.96 28.06 253.02 29.51 259.86 63.47 240.91 67.3 241.32 69.68 260.37 65.95 263.79 83.03 270.73 81.58"/><path id="path153" class="cls-1" d="M260.89,51.47c2.48-5.69-12-6.73-12-6.73l-.62,1.45c6.52,3.73,6.63,5.38,8.8,6.42a2.84,2.84,0,0,0,3.83-1.14" transform="translate(-7.14 -6.74)"/><path id="path155" class="cls-1" d="M263.27,65.65c3-5.38-11.18-7.87-11.18-7.87l-.83,1.35c6.11,4.35,6,6,8.08,7.25a2.75,2.75,0,0,0,3.93-.72" transform="translate(-7.14 -6.74)"/><path id="path157" class="cls-1" d="M232.21,51.26l1.55,7.66-9.84,2,.52,2.48,8.39-1.66c-.1,2.07-1.24,15.63-5,24.33l1.76.93a64,64,0,0,0,6.94-14.49l4.66,23.19,6.94-1.35-5.59-28.16c4,3.21,4.14,4.56,6,5.69,1.55.83,3.21.52,3.93-.72,2.59-4.66-7.56-7.14-10.46-7.66l-.72-3.42,8.39-1.66-.52-2.48-8.39,1.66-1.86-9.11a30.84,30.84,0,0,0,7.45-4.66l-6.83-3.52A61.61,61.61,0,0,1,222.37,52.4l.41,2.07c-.21.1,4.24-1.24,9.42-3.21" transform="translate(-7.14 -6.74)"/><path id="path159" class="cls-1" d="M510.8,162a28.85,28.85,0,0,0,2.59-1.76l20.5,37.17-8.28,2.38L527,202.2l10.87,2.28h.1l2.07-1.14-.41-7.14L534.92,194h0l-3.21-5.9a71.66,71.66,0,0,0,13.35,2.8l-1.76-8.59s-9.11,2.38-13.67,2.07l-8.39-15.11a3.24,3.24,0,0,0,1,.52c6.52,1.45,4.56-15.32,4.56-15.32l-1.66-.41c-2.38,8-4.45,9.11-5.07,11.8a3.42,3.42,0,0,0,0,1.45l-4.76-8.59c.83-.93,1.86-2.07,1.86-2.07l-.93-1.55-.41.1c-5.49,1.86-8.08-.21-11.39,1.55a3.57,3.57,0,0,0-1.66,4.87c1.66,2.69,4.66,2.28,8,.41" transform="translate(-7.14 -6.74)"/><path id="path161" class="cls-1" d="M529.44,178.81c6.32,1.35,4.66-14.49,4.66-14.49l-1.55-.41c-2.38,7.45-4.56,8.8-5.07,11.18a2.93,2.93,0,0,0,2,3.73" transform="translate(-7.14 -6.74)"/><path id="path163" class="cls-1" d="M486.16,193.61c6.42,8.7,12.84,5.28,12.84,5.28l9.52-5.28,10.35,18.74,2.17-1.24h0l-.41-7.14L516,201.79l-5.18-9.42,3.31-1.86,9.84,4.45,2.17-1.24-14.49-26.4-2.17,1.24L520.22,188l-9.42-3.62h0l-3.31,1.86-12.73-22.67-2.17,1.24,12.53,22.67-9.52,5.28c-1,.52-1.45-.1-2.28-1.55-.72-1.24-3.62-7.56-4.24-8.9l-1.76,1c3.83,9.11-1.14,10.25-1.14,10.25" transform="translate(-7.14 -6.74)"/><path id="path165" class="cls-1" d="M364.41,62.75l-9.21-2.28-.62,2.38,1,.31A41.56,41.56,0,0,0,359.34,81a58,58,0,0,1-18.22,7.25l-.52,2.17c8.18,1,15.53-.93,21.84-3.83a41.78,41.78,0,0,0,12.63,12.63c2.17-3.83,5.28-4,6-4l.41-1.76a40.8,40.8,0,0,1-13.67-9.84A62.91,62.91,0,0,0,383.15,70.1h.1l.62-2.38-12.73-3.21,2-7.87,16,4,.62-2.38h0l-5.59-4.56-4.76,2-5.69-1.45,2.8-11.08-6.83-1.76L366.9,52.5l-9.21-2.28-.62,2.38,9.21,2.28Zm-.52,15.32A35.6,35.6,0,0,1,358.82,64l15.43,3.93A53.12,53.12,0,0,1,363.9,78.07" transform="translate(-7.14 -6.74)"/><path id="path167" class="cls-1" d="M331,88l1.86.41h0l6.83,1.76L346,65c3.11-.83,5.59-1.55,6.94-2l.62-2.59c-2.17.31-4.45.52-6.63.72l2.59-10.46,6,1.55.62-2.38-6-1.55,2.8-11.18-6.83-1.76-2.8,11.08-7.87-2-.62,2.38,7.87,2-3.11,12.53c-5.9.21-10.15,0-10.15,0l.41,6.63c3-.41,5.8-.93,8.39-1.45l-3.31,13,.1-.52c-.52,2-.83,2.69-4.66,1.76a26.29,26.29,0,0,1-3.31-1l-.41,1.55C331.6,83.66,331,88,331,88" transform="translate(-7.14 -6.74)"/><path id="path169" class="cls-1" d="M137,100.33c.31-6.11-13.56-2-13.56-2l-.1,1.55c7.45,1.14,8.08,2.69,10.56,2.8a2.7,2.7,0,0,0,3.11-2.38" transform="translate(-7.14 -6.74)"/><path id="path171" class="cls-1" d="M127.23,110.79l-.1,1.55c7.45,1.14,8.08,2.69,10.56,2.9a2.86,2.86,0,0,0,3.21-2.48c.21-6.11-13.67-2-13.67-2" transform="translate(-7.14 -6.74)"/><path id="path173" class="cls-1" d="M190.7,101.88l-1.55-2L185.21,103l-6.63-8.49,3.93-3.11-1.55-2L177,92.57l-8.18-10.46-4.14,3.31L147.94,98.57c0-1.76-.1-3.62-.31-5.69L170,75.49l-1.55-2-7,1.55-1.35,5h.1l-12.84,10a43,43,0,0,0-1.55-6.83l-7.25,3.21s6,10.77,6.73,22.57h2a34.41,34.41,0,0,0,.52-3.93l5.07,6.52L148.35,115l1.55,2,4.45-3.52,6.63,8.39h0l1.55,2h0l.83,1,5.59-4.35-.83-1,13.15-10.25c1.45,1.86,2,3.42-.31,5.18-3,2.38-8.28,6.42-8.28,6.42l.93,1.24s7.35-4.87,9.94-1.45c0,0,9.52-7.56,3.21-15.74l3.93-3Zm-38.93-3.11,13.15-10.25L171.54,97l-2.9,2.28c0-.1.1-.1.1-.21.31-6.21-13.56-2-13.56-2l-.1,1.55c7.45,1.14,8.08,2.69,10.56,2.8H166l-7.56,5.9-6.63-8.59Zm25.05,10.77h0c.31-6.21-13.56-2.07-13.56-2.07l-.1,1.55c7.45,1.14,8.08,2.69,10.56,2.9h.21l-7.45,5.8-6.63-8.39L173,99.09l6.52,8.39h0l.1.1Z" transform="translate(-7.14 -6.74)"/><path id="path175" class="cls-1" d="M139.55,126.94l1.35,1.76s5.38-2.48,12.63,6.83c2.38,3,4.14,5.18,4.14,5.18l3.62-2.9s-8.59-11.28-11.39-15.11c-2.59-3.62-9.11-23.91-10.15-27.12l-2,1.55c1.55,5.18,6.32,21.12,6,24.74,0,3.52-4.24,5.07-4.24,5.07" transform="translate(-7.14 -6.74)"/><path id="path177" class="cls-1" d="M476,118.86l-3.11-6.42-5.18-.21v.1l-11.08-8.9A80.6,80.6,0,0,0,467.94,90.7l-6.52-5.28a75.28,75.28,0,0,1-10.77,13l-17.5-14.08-1.55,2,17.19,13.87c-15.53,13.87-30.64,12.94-37.58,11.39l-1.86,2.28c18.43,8.39,34.37.41,45-8.49a44,44,0,0,0-6.32,39.65c5-3.31,8.8,1,8.8,1l1.24-1.66c-10-16-2.38-35.72-1.55-37.89l17.7,14.29,1.76-2h0Z" transform="translate(-7.14 -6.74)"/></g></svg>